<svg width="61" height="61" viewBox="0 0 61 61" fill="none" xmlns="http://www.w3.org/2000/svg">
<path d="M48.2917 48.292H12.7083V20.3337H48.2917M40.6667 2.54199V7.62533H20.3333V2.54199H15.25V7.62533H12.7083C9.88708 7.62533 7.625 9.88741 7.625 12.7087V48.292C7.625 49.6402 8.16056 50.9331 9.11387 51.8864C10.0672 52.8398 11.3601 53.3753 12.7083 53.3753H48.2917C49.6399 53.3753 50.9328 52.8398 51.8861 51.8864C52.8394 50.9331 53.375 49.6402 53.375 48.292V12.7087C53.375 11.3605 52.8394 10.0675 51.8861 9.1142C50.9328 8.16089 49.6399 7.62533 48.2917 7.62533H45.75V2.54199M43.2083 30.5003H30.5V43.2087H43.2083V30.5003Z" fill="white"/>
</svg>
