<svg width="71" height="68" viewBox="0 0 71 68" fill="none" xmlns="http://www.w3.org/2000/svg">
<path d="M35.466 45.9846C28.6365 45.9846 23.0938 40.4419 23.0938 33.6124C23.0938 26.783 28.6365 21.2402 35.466 21.2402C42.2954 21.2402 47.8382 26.783 47.8382 33.6124C47.8382 40.4419 42.2954 45.9846 35.466 45.9846ZM35.466 26.1891C31.3749 26.1891 28.0426 29.5214 28.0426 33.6124C28.0426 37.7035 31.3749 41.0358 35.466 41.0358C39.557 41.0358 42.8893 37.7035 42.8893 33.6124C42.8893 29.5214 39.557 26.1891 35.466 26.1891Z" fill="#FCFDFF"/>
<path d="M46.0576 67.2315C45.3648 67.2315 44.6719 67.1326 43.9791 66.9676C41.9335 66.4067 40.2179 65.12 39.1292 63.3054L38.7333 62.6456C36.7867 59.2803 34.1143 59.2803 32.1677 62.6456L31.8048 63.2724C30.7161 65.12 29.0005 66.4397 26.9549 66.9676C24.8764 67.5285 22.7319 67.2315 20.9173 66.1428L15.2426 62.8765C13.23 61.7218 11.7783 59.8412 11.1515 57.5647C10.5576 55.2882 10.8546 52.9458 12.0093 50.9332C12.9661 49.2506 13.23 47.7329 12.6691 46.7762C12.1083 45.8194 10.6896 45.2585 8.74303 45.2585C3.92612 45.2585 0 41.3324 0 36.5155V30.7088C0 25.8919 3.92612 21.9657 8.74303 21.9657C10.6896 21.9657 12.1083 21.4049 12.6691 20.4481C13.23 19.4913 12.9991 17.9736 12.0093 16.291C10.8546 14.2785 10.5576 11.903 11.1515 9.65952C11.7454 7.38303 13.197 5.50245 15.2426 4.34772L20.9503 1.08145C24.6784 -1.12905 29.5943 0.157659 31.8378 3.9518L32.2337 4.61166C34.1803 7.9769 36.8527 7.9769 38.7993 4.61166L39.1622 3.9848C41.4057 0.157659 46.3216 -1.12905 50.0827 1.11444L55.7574 4.38071C57.77 5.53545 59.2216 7.41602 59.8485 9.69251C60.4424 11.969 60.1454 14.3115 58.9907 16.324C58.0339 18.0066 57.77 19.5243 58.3309 20.4811C58.8917 21.4379 60.3104 21.9987 62.257 21.9987C67.0739 21.9987 71 25.9249 71 30.7418V36.5485C71 41.3654 67.0739 45.2915 62.257 45.2915C60.3104 45.2915 58.8917 45.8524 58.3309 46.8091C57.77 47.7659 58.0009 49.2836 58.9907 50.9662C60.1454 52.9788 60.4754 55.3542 59.8485 57.5977C59.2546 59.8742 57.803 61.7548 55.7574 62.9095L50.0497 66.1758C48.796 66.8686 47.4433 67.2315 46.0576 67.2315ZM35.467 55.0243C38.4033 55.0243 41.1417 56.8719 43.0223 60.1381L43.3852 60.765C43.7811 61.4578 44.441 61.9527 45.2328 62.1507C46.0246 62.3486 46.8164 62.2497 47.4763 61.8537L53.184 58.5545C54.0418 58.0596 54.7017 57.2348 54.9656 56.245C55.2295 55.2552 55.0976 54.2325 54.6027 53.3747C52.7221 50.1414 52.4912 46.8091 53.9428 44.2687C55.3945 41.7283 58.3968 40.2766 62.158 40.2766C64.2695 40.2766 65.9521 38.594 65.9521 36.4825V30.6758C65.9521 28.5972 64.2695 26.8816 62.158 26.8816C58.3968 26.8816 55.3945 25.43 53.9428 22.8895C52.4912 20.3491 52.7221 17.0169 54.6027 13.7836C55.0976 12.9258 55.2295 11.903 54.9656 10.9132C54.7017 9.92346 54.0748 9.13164 53.217 8.60375L47.5093 5.33749C46.0906 4.47969 44.21 4.97457 43.3522 6.42625L42.9893 7.05311C41.1087 10.3194 38.3703 12.167 35.434 12.167C32.4977 12.167 29.7593 10.3194 27.8787 7.05311L27.5158 6.39325C26.691 5.00757 24.8434 4.51268 23.4247 5.33749L17.717 8.63675C16.8592 9.13164 16.1993 9.95645 15.9354 10.9462C15.6715 11.936 15.8034 12.9588 16.2983 13.8166C18.1789 17.0499 18.4098 20.3821 16.9582 22.9225C15.5065 25.463 12.5042 26.9146 8.74303 26.9146C6.63151 26.9146 4.94888 28.5972 4.94888 30.7088V36.5155C4.94888 38.594 6.63151 40.3096 8.74303 40.3096C12.5042 40.3096 15.5065 41.7613 16.9582 44.3017C18.4098 46.8421 18.1789 50.1744 16.2983 53.4077C15.8034 54.2655 15.6715 55.2882 15.9354 56.278C16.1993 57.2678 16.8262 58.0596 17.684 58.5875L23.3917 61.8537C24.0846 62.2827 24.9094 62.3816 25.6682 62.1837C26.46 61.9857 27.1199 61.4578 27.5488 60.765L27.9117 60.1381C29.7923 56.9049 32.5307 55.0243 35.467 55.0243Z" fill="#FCFDFF"/>
</svg>
