<svg width="61" height="61" viewBox="0 0 61 61" fill="none" xmlns="http://www.w3.org/2000/svg">
<path d="M30.4999 35.583C31.0026 35.583 31.494 35.4339 31.912 35.1547C32.33 34.8754 32.6557 34.4784 32.8481 34.014C33.0405 33.5496 33.0908 33.0385 32.9927 32.5455C32.8947 32.0525 32.6526 31.5996 32.2971 31.2441C31.9417 30.8887 31.4888 30.6466 30.9958 30.5485C30.5027 30.4504 29.9917 30.5008 29.5273 30.6931C29.0628 30.8855 28.6659 31.2113 28.3866 31.6293C28.1073 32.0472 27.9583 32.5386 27.9583 33.0413C27.9583 33.7154 28.226 34.3619 28.7027 34.8386C29.1793 35.3152 29.8258 35.583 30.4999 35.583ZM43.2082 35.583C43.7109 35.583 44.2024 35.4339 44.6203 35.1547C45.0383 34.8754 45.3641 34.4784 45.5564 34.014C45.7488 33.5496 45.7991 33.0385 45.7011 32.5455C45.603 32.0525 45.3609 31.5996 45.0055 31.2441C44.65 30.8887 44.1971 30.6466 43.7041 30.5485C43.2111 30.4504 42.7 30.5008 42.2356 30.6931C41.7712 30.8855 41.3742 31.2113 41.0949 31.6293C40.8156 32.0472 40.6666 32.5386 40.6666 33.0413C40.6666 33.7154 40.9344 34.3619 41.411 34.8386C41.8877 35.3152 42.5342 35.583 43.2082 35.583ZM30.4999 45.7497C31.0026 45.7497 31.494 45.6006 31.912 45.3213C32.33 45.042 32.6557 44.6451 32.8481 44.1807C33.0405 43.7162 33.0908 43.2052 32.9927 42.7121C32.8947 42.2191 32.6526 41.7662 32.2971 41.4108C31.9417 41.0553 31.4888 40.8132 30.9958 40.7152C30.5027 40.6171 29.9917 40.6674 29.5273 40.8598C29.0628 41.0522 28.6659 41.378 28.3866 41.7959C28.1073 42.2139 27.9583 42.7053 27.9583 43.208C27.9583 43.8821 28.226 44.5286 28.7027 45.0052C29.1793 45.4819 29.8258 45.7497 30.4999 45.7497ZM43.2082 45.7497C43.7109 45.7497 44.2024 45.6006 44.6203 45.3213C45.0383 45.042 45.3641 44.6451 45.5564 44.1807C45.7488 43.7162 45.7991 43.2052 45.7011 42.7121C45.603 42.2191 45.3609 41.7662 45.0055 41.4108C44.65 41.0553 44.1971 40.8132 43.7041 40.7152C43.2111 40.6171 42.7 40.6674 42.2356 40.8598C41.7712 41.0522 41.3742 41.378 41.0949 41.7959C40.8156 42.2139 40.6666 42.7053 40.6666 43.208C40.6666 43.8821 40.9344 44.5286 41.411 45.0052C41.8877 45.4819 42.5342 45.7497 43.2082 45.7497ZM17.7916 35.583C18.2943 35.583 18.7857 35.4339 19.2037 35.1547C19.6216 34.8754 19.9474 34.4784 20.1398 34.014C20.3322 33.5496 20.3825 33.0385 20.2844 32.5455C20.1863 32.0525 19.9443 31.5996 19.5888 31.2441C19.2334 30.8887 18.7805 30.6466 18.2874 30.5485C17.7944 30.4504 17.2834 30.5008 16.8189 30.6931C16.3545 30.8855 15.9575 31.2113 15.6783 31.6293C15.399 32.0472 15.2499 32.5386 15.2499 33.0413C15.2499 33.7154 15.5177 34.3619 15.9944 34.8386C16.471 35.3152 17.1175 35.583 17.7916 35.583ZM48.2916 10.1663H45.7499V7.62467C45.7499 6.95058 45.4821 6.3041 45.0055 5.82744C44.5288 5.35079 43.8823 5.08301 43.2082 5.08301C42.5342 5.08301 41.8877 5.35079 41.411 5.82744C40.9344 6.3041 40.6666 6.95058 40.6666 7.62467V10.1663H20.3333V7.62467C20.3333 6.95058 20.0655 6.3041 19.5888 5.82744C19.1122 5.35079 18.4657 5.08301 17.7916 5.08301C17.1175 5.08301 16.471 5.35079 15.9944 5.82744C15.5177 6.3041 15.2499 6.95058 15.2499 7.62467V10.1663H12.7083C10.686 10.1663 8.74653 10.9697 7.31656 12.3997C5.8866 13.8296 5.08325 15.7691 5.08325 17.7913V48.2913C5.08325 50.3136 5.8866 52.2531 7.31656 53.683C8.74653 55.113 10.686 55.9163 12.7083 55.9163H48.2916C50.3139 55.9163 52.2533 55.113 53.6833 53.683C55.1132 52.2531 55.9166 50.3136 55.9166 48.2913V17.7913C55.9166 15.7691 55.1132 13.8296 53.6833 12.3997C52.2533 10.9697 50.3139 10.1663 48.2916 10.1663ZM50.8332 48.2913C50.8332 48.9654 50.5655 49.6119 50.0888 50.0886C49.6122 50.5652 48.9657 50.833 48.2916 50.833H12.7083C12.0342 50.833 11.3877 50.5652 10.911 50.0886C10.4344 49.6119 10.1666 48.9654 10.1666 48.2913V25.4163H50.8332V48.2913ZM50.8332 20.333H10.1666V17.7913C10.1666 17.1172 10.4344 16.4708 10.911 15.9941C11.3877 15.5175 12.0342 15.2497 12.7083 15.2497H48.2916C48.9657 15.2497 49.6122 15.5175 50.0888 15.9941C50.5655 16.4708 50.8332 17.1172 50.8332 17.7913V20.333ZM17.7916 45.7497C18.2943 45.7497 18.7857 45.6006 19.2037 45.3213C19.6216 45.042 19.9474 44.6451 20.1398 44.1807C20.3322 43.7162 20.3825 43.2052 20.2844 42.7121C20.1863 42.2191 19.9443 41.7662 19.5888 41.4108C19.2334 41.0553 18.7805 40.8132 18.2874 40.7152C17.7944 40.6171 17.2834 40.6674 16.8189 40.8598C16.3545 41.0522 15.9575 41.378 15.6783 41.7959C15.399 42.2139 15.2499 42.7053 15.2499 43.208C15.2499 43.8821 15.5177 44.5286 15.9944 45.0052C16.471 45.4819 17.1175 45.7497 17.7916 45.7497Z" fill="white"/>
</svg>
