<svg width="61" height="61" viewBox="0 0 61 61" fill="none" xmlns="http://www.w3.org/2000/svg">
<path d="M43.2083 40.6667C41.0903 40.6667 39.2899 39.9254 37.8073 38.4427C36.3247 36.9601 35.5833 35.1597 35.5833 33.0417C35.5833 30.9236 36.3247 29.1233 37.8073 27.6406C39.2899 26.158 41.0903 25.4167 43.2083 25.4167C45.3264 25.4167 47.1267 26.158 48.6094 27.6406C50.092 29.1233 50.8333 30.9236 50.8333 33.0417C50.8333 35.1597 50.092 36.9601 48.6094 38.4427C47.1267 39.9254 45.3264 40.6667 43.2083 40.6667ZM43.2083 35.5833C43.9285 35.5833 44.5325 35.3393 45.0205 34.8513C45.5085 34.3633 45.7517 33.7601 45.75 33.0417C45.75 32.3215 45.506 31.7175 45.018 31.2295C44.53 30.7415 43.9268 30.4983 43.2083 30.5C42.4882 30.5 41.8841 30.744 41.3961 31.232C40.9081 31.72 40.665 32.3232 40.6667 33.0417C40.6667 33.7618 40.9107 34.3659 41.3987 34.8539C41.8867 35.3419 42.4899 35.585 43.2083 35.5833ZM27.9583 58.4583V51.0875C27.9583 50.1979 28.1701 49.3609 28.5938 48.5763C29.0174 47.7918 29.6104 47.1674 30.3729 46.7031C31.7285 45.8983 33.1586 45.2307 34.6633 44.7003C36.1679 44.1699 37.7031 43.7785 39.2688 43.526L43.2083 48.2917L47.1479 43.526C48.7153 43.7802 50.2403 44.1725 51.7229 44.7028C53.2056 45.2332 54.6247 45.9 55.9802 46.7031C56.7427 47.1691 57.3468 47.7944 57.7924 48.5789C58.2381 49.3634 58.46 50.1996 58.4583 51.0875V58.4583H27.9583ZM32.9781 53.375H40.7938L37.3625 49.1813C36.6 49.3931 35.8587 49.6684 35.1385 50.0073C34.4184 50.3462 33.6983 50.7063 32.9781 51.0875V53.375ZM45.6229 53.375H53.375V51.0875C52.6972 50.6639 51.9983 50.2928 51.2781 49.9743C50.558 49.6557 49.8167 49.3914 49.0542 49.1813L45.6229 53.375ZM12.7083 53.375C11.3104 53.375 10.1133 52.8768 9.11696 51.8805C8.12063 50.8842 7.62331 49.6879 7.625 48.2917V12.7083C7.625 11.3104 8.12317 10.1133 9.1195 9.11696C10.1158 8.12063 11.3121 7.62331 12.7083 7.625H48.2917C49.6896 7.625 50.8867 8.12317 51.883 9.1195C52.8794 10.1158 53.3767 11.3121 53.375 12.7083V25.4167C52.6972 24.5695 51.9559 23.7646 51.151 23.0021C50.3462 22.2396 49.3931 21.7313 48.2917 21.4771V12.7083H12.7083V48.2917H23.2563C23.1292 48.7576 23.0334 49.2236 22.969 49.6896C22.9047 50.1556 22.8733 50.6215 22.875 51.0875V53.375H12.7083ZM17.7917 22.875H35.5833C36.6847 22.0278 37.892 21.3924 39.2052 20.9688C40.5184 20.5451 41.8528 20.3333 43.2083 20.3333V17.7917H17.7917V22.875ZM17.7917 33.0417H30.5C30.5 32.1521 30.5949 31.2837 30.7847 30.4365C30.9745 29.5892 31.2396 28.7632 31.5802 27.9583H17.7917V33.0417ZM17.7917 43.2083H26.5604C27.0264 42.8271 27.5246 42.4882 28.0549 42.1917C28.5853 41.8951 29.125 41.6198 29.674 41.3656V38.125H17.7917V43.2083ZM12.7083 48.2917V12.7083V21.4135V20.3333V48.2917Z" fill="white"/>
</svg>
