<svg width="27" height="27" viewBox="0 0 27 27" fill="none" xmlns="http://www.w3.org/2000/svg">
<path d="M20.7712 26.9706H6.22884C2.78791 26.9706 0 24.1701 0 20.7292V11.4236C0 9.71565 1.05488 7.5682 2.41116 6.51332L9.18 1.2389C11.2144 -0.343418 14.467 -0.418767 16.5767 1.06309L24.3377 6.50076C25.8321 7.54309 27 9.77844 27 11.5994V20.7417C27 24.1701 24.2121 26.9706 20.7712 26.9706ZM10.3353 2.72076L3.56651 7.99518C2.67488 8.69844 1.88372 10.2933 1.88372 11.4236V20.7292C1.88372 23.1278 3.83023 25.0868 6.22884 25.0868H20.7712C23.1698 25.0868 25.1163 23.1403 25.1163 20.7417V11.5994C25.1163 10.3938 24.2498 8.72355 23.2577 8.04541L15.4967 2.60774C14.0651 1.60309 11.7042 1.65332 10.3353 2.72076Z" fill="white"/>
<path d="M13.5 21.9471C12.9851 21.9471 12.5581 21.5201 12.5581 21.0052V17.2378C12.5581 16.7229 12.9851 16.2959 13.5 16.2959C14.0149 16.2959 14.4419 16.7229 14.4419 17.2378V21.0052C14.4419 21.5201 14.0149 21.9471 13.5 21.9471Z" fill="white"/>
</svg>
