<svg width="27" height="27" viewBox="0 0 27 27" fill="none" xmlns="http://www.w3.org/2000/svg">
<path d="M17.1986 6.57911e-07C15.4813 -2.44584e-05 14.0969 -4.95148e-05 13.0082 0.146328C11.8779 0.298307 10.9261 0.623424 10.1702 1.37932C9.51098 2.03854 9.17789 2.84864 9.00305 3.80053C8.83315 4.72552 8.80065 5.85749 8.79308 7.21569C8.79019 7.73585 9.20951 8.15988 9.72968 8.16278C10.2498 8.16568 10.6739 7.74634 10.6768 7.22618C10.6844 5.85295 10.7201 4.87959 10.8558 4.14086C10.9865 3.42905 11.1965 3.01704 11.5021 2.71132C11.8497 2.36376 12.3378 2.13714 13.2591 2.01326C14.2078 1.88572 15.465 1.88372 17.2675 1.88372H18.5233C20.3259 1.88372 21.5831 1.88572 22.5317 2.01326C23.4532 2.13714 23.9411 2.36376 24.2887 2.71132C24.6363 3.05887 24.8629 3.54686 24.9868 4.46834C25.1143 5.41692 25.1163 6.67414 25.1163 8.47674V18.5233C25.1163 20.3259 25.1143 21.583 24.9868 22.5317C24.8629 23.4532 24.6363 23.9411 24.2887 24.2887C23.9411 24.6363 23.4532 24.8629 22.5317 24.9868C21.5831 25.1143 20.3259 25.1163 18.5233 25.1163H17.2675C15.465 25.1163 14.2078 25.1143 13.2591 24.9868C12.3378 24.8629 11.8497 24.6363 11.5021 24.2887C11.1965 23.9829 10.9865 23.571 10.8558 22.8592C10.7201 22.1204 10.6844 21.147 10.6768 19.7738C10.6739 19.2536 10.2498 18.8343 9.72968 18.8372C9.20951 18.8401 8.79019 19.2642 8.79308 19.7843C8.80065 21.1425 8.83315 22.2745 9.00305 23.1994C9.17789 24.1513 9.51098 24.9614 10.1702 25.6207C10.9261 26.3766 11.8779 26.7017 13.0082 26.8537C14.0969 27 15.4813 27 17.1986 27H18.5923C20.3097 27 21.694 27 22.7828 26.8537C23.9131 26.7017 24.8648 26.3766 25.6207 25.6207C26.3766 24.8647 26.7017 23.9131 26.8537 22.7827C27.0001 21.6939 27 20.3097 27 18.5922V8.40784C27 6.6904 27.0001 5.30609 26.8537 4.21734C26.7017 3.08697 26.3766 2.13522 25.6207 1.37932C24.8648 0.623424 23.9131 0.298307 22.7828 0.146328C21.694 -4.95148e-05 20.3097 -2.44584e-05 18.5923 6.57911e-07H17.1986Z" fill="#ED2B2A"/>
<path d="M17.2673 12.5585C17.7874 12.5585 18.2091 12.9802 18.2091 13.5003C18.2091 14.0205 17.7874 14.4422 17.2673 14.4422H3.48792L5.9501 16.5527C6.34505 16.8912 6.39079 17.4858 6.05226 17.8807C5.71375 18.2757 5.11915 18.3214 4.72422 17.9828L0.328907 14.2154C0.120143 14.0366 0 13.7752 0 13.5003C0 13.2254 0.120143 12.9641 0.328907 12.7853L4.72422 9.01778C5.11915 8.67925 5.71375 8.72499 6.05226 9.11994C6.39079 9.51488 6.34505 10.1095 5.9501 10.448L3.48792 12.5585H17.2673Z" fill="#ED2B2A"/>
</svg>
