<svg width="29" height="30" viewBox="0 0 29 30" fill="none" xmlns="http://www.w3.org/2000/svg">
<path d="M22.5946 12.8783V18.2837C22.5946 18.635 22.5811 18.9729 22.5406 19.2972C22.2298 22.9458 20.0811 24.7567 16.1217 24.7567H15.5811C15.2433 24.7567 14.9189 24.9188 14.7162 25.1891L13.0946 27.3513C12.3784 28.3107 11.2162 28.3107 10.5 27.3513L8.87838 25.1891C8.7027 24.9594 8.31083 24.7567 8.01353 24.7567H7.473C3.16218 24.7567 1 23.6891 1 18.2837V12.8783C1 8.9188 2.82434 6.77015 6.45948 6.45934C6.78381 6.4188 7.12165 6.40527 7.473 6.40527H16.1217C20.4325 6.40527 22.5946 8.56745 22.5946 12.8783Z" stroke="white" stroke-width="2" stroke-miterlimit="10" stroke-linecap="round" stroke-linejoin="round"/>
<path d="M28 7.473V12.8784C28 16.8514 26.1757 18.9865 22.5406 19.2973C22.5811 18.973 22.5946 18.6352 22.5946 18.2838V12.8784C22.5946 8.5676 20.4324 6.40542 16.1216 6.40542H7.473C7.12165 6.40542 6.78381 6.41894 6.45949 6.45949C6.7703 2.82434 8.91895 1 12.8784 1H21.527C25.8379 1 28 3.16218 28 7.473Z" stroke="white" stroke-width="2" stroke-miterlimit="10" stroke-linecap="round" stroke-linejoin="round"/>
<path d="M16.5347 16.2031H16.5474" stroke="white" stroke-width="2" stroke-linecap="round" stroke-linejoin="round"/>
<path d="M11.8049 16.2031H11.8176" stroke="white" stroke-width="2" stroke-linecap="round" stroke-linejoin="round"/>
<path d="M7.07475 16.2031H7.08742" stroke="white" stroke-width="2" stroke-linecap="round" stroke-linejoin="round"/>
</svg>
