<svg width="50" height="48" viewBox="0 0 50 48" fill="none" xmlns="http://www.w3.org/2000/svg">
<path d="M49.3291 44.8034C45.7 38.5294 40.1076 34.0307 33.5811 31.898C36.8094 29.9762 39.3176 27.0478 40.7205 23.5625C42.1234 20.0772 42.3434 16.2277 41.3468 12.6053C40.3502 8.9828 38.192 5.78765 35.2037 3.51047C32.2154 1.23329 28.5622 0 24.8052 0C21.0481 0 17.3949 1.23329 14.4066 3.51047C11.4183 5.78765 9.26016 8.9828 8.26354 12.6053C7.26692 16.2277 7.48695 20.0772 8.88985 23.5625C10.2928 27.0478 12.801 29.9762 16.0293 31.898C9.50274 34.0283 3.91028 38.527 0.281259 44.8034C0.148176 45.0204 0.059903 45.2618 0.0216483 45.5135C-0.0166064 45.7651 -0.00406811 46.0219 0.0585234 46.2687C0.121115 46.5154 0.232492 46.7471 0.386083 46.9501C0.539674 47.1531 0.732367 47.3233 0.952794 47.4506C1.17322 47.5779 1.41692 47.6598 1.6695 47.6914C1.92209 47.7231 2.17845 47.7038 2.42346 47.6347C2.66847 47.5656 2.89716 47.4482 3.09605 47.2893C3.29493 47.1304 3.45998 46.9333 3.58145 46.7096C8.07067 38.9512 16.0054 34.319 24.8052 34.319C33.6049 34.319 41.5397 38.9512 46.0289 46.7096C46.1503 46.9333 46.3154 47.1304 46.5143 47.2893C46.7132 47.4482 46.9419 47.5656 47.1869 47.6347C47.4319 47.7038 47.6882 47.7231 47.9408 47.6914C48.1934 47.6598 48.4371 47.5779 48.6575 47.4506C48.878 47.3233 49.0707 47.1531 49.2242 46.9501C49.3778 46.7471 49.4892 46.5154 49.5518 46.2687C49.6144 46.0219 49.6269 45.7651 49.5887 45.5135C49.5504 45.2618 49.4622 45.0204 49.3291 44.8034ZM11.4614 17.1627C11.4614 14.5236 12.244 11.9437 13.7102 9.74934C15.1765 7.55497 17.2605 5.84467 19.6987 4.83471C22.137 3.82476 24.82 3.56051 27.4084 4.07538C29.9968 4.59025 32.3745 5.86112 34.2406 7.72728C36.1068 9.59343 37.3776 11.9711 37.8925 14.5595C38.4074 17.1479 38.1431 19.8309 37.1332 22.2692C36.1232 24.7074 34.4129 26.7914 32.2186 28.2577C30.0242 29.7239 27.4443 30.5065 24.8052 30.5065C21.2673 30.5027 17.8755 29.0956 15.3739 26.594C12.8723 24.0924 11.4652 20.7006 11.4614 17.1627Z" fill="white"/>
</svg>
